<?xml version="1.0" encoding="UTF-8" ?>
<!DOCTYPE svg PUBLIC "-//W3C//DTD SVG 1.1//EN" "http://www.w3.org/Graphics/SVG/1.1/DTD/svg11.dtd">
<svg width="712pt" height="711pt" viewBox="0 0 712 711" version="1.1" xmlns="http://www.w3.org/2000/svg">
<g id="#fa4c8bff">
<path fill="#fa4c8b" opacity="1.00" d=" M 152.62 0.00 L 558.49 0.00 C 592.54 0.75 626.29 12.72 652.82 34.15 C 679.31 55.29 698.65 85.28 706.68 118.23 C 710.10 131.87 711.47 145.97 711.25 160.01 C 711.25 292.34 711.25 424.68 711.25 557.01 C 711.22 559.06 710.94 561.09 710.76 563.14 C 709.44 560.27 708.85 557.16 708.24 554.09 C 698.28 509.84 683.43 466.80 665.57 425.14 C 644.20 375.67 618.76 327.90 588.82 283.07 C 577.69 266.86 566.31 250.64 552.57 236.51 C 549.18 233.48 545.76 229.47 541.06 228.84 C 531.60 230.34 524.82 238.02 519.21 245.17 C 507.48 260.84 499.35 278.81 491.64 296.70 C 490.52 299.39 487.78 301.30 484.86 301.31 C 423.01 293.40 358.73 303.76 302.92 331.75 C 300.14 333.09 297.39 335.21 294.12 334.67 C 291.64 334.40 289.99 332.29 288.23 330.76 C 273.26 316.31 258.37 301.46 240.80 290.14 C 235.36 287.00 229.20 283.05 222.65 284.75 C 217.93 287.41 215.74 292.77 213.37 297.38 C 205.55 314.77 200.86 333.37 196.49 351.87 C 185.74 399.87 180.02 448.89 177.09 497.95 C 174.93 532.28 175.18 566.70 175.69 601.08 C 176.69 633.12 179.36 665.06 181.95 697.01 C 182.48 701.67 182.50 706.40 183.55 711.00 L 150.34 711.00 C 129.21 710.06 108.23 705.14 89.13 696.01 C 76.99 690.44 66.08 682.67 55.42 674.74 C 50.75 670.97 47.22 665.93 42.33 662.40 C 34.80 653.55 27.61 644.34 21.75 634.28 C 9.81 614.13 2.65 591.22 0.81 567.89 C 0.60 564.90 0.56 561.89 0.00 558.94 L 0.00 152.38 C 0.66 148.61 0.61 144.77 0.98 140.97 C 2.46 125.37 6.27 109.98 12.36 95.53 C 25.14 64.88 48.08 38.62 76.67 21.74 C 99.54 8.03 126.02 0.79 152.62 0.00 M 158.42 79.70 C 154.67 81.60 152.05 85.72 152.24 89.96 C 152.38 96.99 153.48 103.95 153.89 110.97 C 154.04 114.62 155.44 118.74 153.18 122.02 C 152.01 123.99 149.83 124.99 147.65 125.39 C 137.47 127.32 127.27 129.14 117.10 131.12 C 113.11 132.08 108.96 129.01 108.14 125.10 C 105.94 116.94 103.74 108.79 101.60 100.61 C 100.94 97.92 99.49 95.42 97.28 93.72 C 93.13 90.28 86.38 90.83 82.78 94.82 C 79.70 97.63 79.08 102.26 80.21 106.12 C 88.88 138.44 97.53 170.77 106.20 203.09 C 107.47 208.23 112.67 212.25 118.03 211.52 C 124.53 211.11 129.40 204.12 127.60 197.87 C 124.48 185.90 121.20 173.98 118.03 162.03 C 116.55 157.85 119.55 153.00 123.85 152.27 C 132.27 150.71 140.66 149.01 149.10 147.60 C 153.21 146.80 157.26 150.17 157.66 154.23 C 158.87 166.83 159.81 179.47 161.04 192.07 C 161.59 197.41 166.47 202.22 172.01 201.77 C 178.17 202.13 183.65 196.12 182.84 190.01 C 180.08 156.33 176.99 122.67 174.08 89.00 C 173.97 81.48 165.07 76.27 158.42 79.70 M 209.19 86.24 C 204.86 87.89 201.99 92.51 202.26 97.11 C 202.43 103.03 208.04 108.05 213.96 107.53 C 220.54 107.29 225.76 100.35 224.00 93.96 C 222.72 87.59 215.15 83.65 209.19 86.24 M 212.27 122.39 C 208.71 123.82 205.91 127.21 205.56 131.08 C 205.37 133.36 205.60 135.64 205.81 137.91 C 207.30 153.62 208.49 169.35 210.02 185.05 C 210.92 192.79 221.08 197.05 227.22 192.21 C 231.67 189.36 232.32 183.71 231.56 178.92 C 230.07 162.90 228.79 146.86 227.30 130.84 C 226.44 124.05 218.52 119.68 212.27 122.39 M 267.36 167.48 C 261.63 170.20 259.89 178.36 263.65 183.35 C 265.47 186.12 268.72 187.49 271.92 187.84 C 293.98 190.74 314.24 204.55 325.10 223.96 C 326.48 226.46 327.80 229.22 330.36 230.73 C 334.52 233.69 340.78 232.89 344.11 229.02 C 347.04 225.87 347.50 220.90 345.76 217.06 C 331.79 189.23 303.13 169.22 272.06 166.32 C 270.43 166.32 268.80 166.72 267.36 167.48 Z" />
<path fill="#fa4c8b" opacity="1.00" d=" M 501.41 391.56 C 508.34 389.97 515.43 392.91 520.50 397.59 C 529.13 405.46 533.96 416.73 536.05 428.04 C 538.08 440.29 537.31 453.72 530.52 464.45 C 526.80 470.37 520.18 474.92 512.98 474.48 C 504.53 473.74 497.64 467.75 492.92 461.09 C 485.11 449.73 481.68 435.59 482.47 421.90 C 483.22 413.91 485.31 405.74 490.24 399.26 C 493.03 395.61 496.90 392.66 501.41 391.56 Z" />
<path fill="#fa4c8b" opacity="1.00" d=" M 312.56 424.78 C 319.04 423.25 325.68 426.25 330.54 430.41 C 340.24 438.82 345.27 451.41 347.18 463.85 C 348.69 475.22 347.59 487.44 341.49 497.39 C 338.05 503.09 331.97 507.88 325.06 507.77 C 317.80 508.01 311.34 503.49 306.67 498.32 C 295.21 484.91 291.21 466.10 294.08 448.92 C 296.01 438.73 301.67 427.48 312.56 424.78 Z" />
<path fill="#fa4c8b" opacity="1.00" d=" M 495.78 524.75 C 498.97 521.88 503.61 521.42 507.61 522.61 C 511.57 524.20 514.64 527.84 515.48 532.05 C 517.23 543.09 515.21 554.77 509.45 564.39 C 502.06 577.09 488.59 586.05 474.00 587.84 C 461.34 589.86 448.16 585.83 438.11 578.03 C 429.67 591.69 414.12 600.51 398.07 600.72 C 378.86 601.35 359.85 589.23 352.70 571.32 C 350.51 565.65 347.36 558.71 351.12 553.01 C 354.59 546.69 363.91 544.84 369.35 549.70 C 374.78 554.27 373.65 562.49 378.50 567.48 C 385.23 576.22 398.00 578.67 407.79 573.92 C 415.72 570.26 420.74 561.59 420.57 552.94 C 420.70 549.33 419.66 545.50 421.23 542.09 C 423.36 536.86 429.35 533.33 434.96 534.58 C 438.61 535.43 441.96 537.89 443.58 541.31 C 444.69 544.04 445.06 547.02 446.21 549.75 C 449.47 557.65 457.51 563.25 466.05 563.59 C 473.83 564.18 481.85 560.85 486.60 554.60 C 490.59 549.70 492.33 543.23 491.47 536.99 C 490.80 532.51 491.96 527.52 495.78 524.75 Z" />
<path fill="#fa4c8b" opacity="1.00" d=" M 52.19 674.21 C 52.79 674.77 52.79 674.77 52.19 674.21 Z" />
</g>
<g id="#ffffffff">
<path fill="#ffffff" opacity="1.00" d=" M 158.42 79.70 C 165.07 76.27 173.97 81.48 174.08 89.00 C 176.99 122.67 180.08 156.33 182.84 190.01 C 183.65 196.12 178.17 202.13 172.01 201.77 C 166.47 202.22 161.59 197.41 161.04 192.07 C 159.81 179.47 158.87 166.83 157.66 154.23 C 157.26 150.17 153.21 146.80 149.10 147.60 C 140.66 149.01 132.27 150.71 123.85 152.27 C 119.55 153.00 116.55 157.85 118.03 162.03 C 121.20 173.98 124.48 185.90 127.60 197.87 C 129.40 204.12 124.53 211.11 118.03 211.52 C 112.67 212.25 107.47 208.23 106.20 203.09 C 97.53 170.77 88.88 138.44 80.21 106.12 C 79.08 102.26 79.70 97.63 82.78 94.82 C 86.38 90.83 93.13 90.28 97.28 93.72 C 99.49 95.42 100.94 97.92 101.60 100.61 C 103.74 108.79 105.94 116.94 108.14 125.10 C 108.96 129.01 113.11 132.08 117.10 131.12 C 127.27 129.14 137.47 127.32 147.65 125.39 C 149.83 124.99 152.01 123.99 153.18 122.02 C 155.44 118.74 154.04 114.62 153.89 110.97 C 153.48 103.95 152.38 96.99 152.24 89.96 C 152.05 85.72 154.67 81.60 158.42 79.70 Z" />
<path fill="#ffffff" opacity="1.00" d=" M 209.19 86.24 C 215.15 83.65 222.72 87.59 224.00 93.96 C 225.76 100.35 220.54 107.29 213.96 107.53 C 208.04 108.05 202.43 103.03 202.26 97.11 C 201.99 92.51 204.86 87.89 209.19 86.24 Z" />
<path fill="#ffffff" opacity="1.00" d=" M 212.27 122.39 C 218.52 119.68 226.44 124.05 227.30 130.84 C 228.79 146.86 230.07 162.90 231.56 178.92 C 232.32 183.71 231.67 189.36 227.22 192.21 C 221.08 197.05 210.92 192.79 210.02 185.05 C 208.49 169.35 207.30 153.62 205.81 137.91 C 205.60 135.64 205.37 133.36 205.56 131.08 C 205.91 127.21 208.71 123.82 212.27 122.39 Z" />
<path fill="#ffffff" opacity="1.00" d=" M 267.36 167.48 C 268.80 166.72 270.43 166.32 272.06 166.32 C 303.13 169.22 331.79 189.23 345.76 217.06 C 347.50 220.90 347.04 225.87 344.11 229.02 C 340.78 232.89 334.52 233.69 330.36 230.73 C 327.80 229.22 326.48 226.46 325.10 223.96 C 314.24 204.55 293.98 190.74 271.92 187.84 C 268.72 187.49 265.47 186.12 263.65 183.35 C 259.89 178.36 261.63 170.20 267.36 167.48 Z" />
<path fill="#ffffff" opacity="1.00" d=" M 519.21 245.17 C 524.82 238.02 531.60 230.34 541.06 228.84 C 545.76 229.47 549.18 233.48 552.57 236.51 C 566.31 250.64 577.69 266.86 588.82 283.07 C 618.76 327.90 644.20 375.67 665.57 425.14 C 683.43 466.80 698.28 509.84 708.24 554.09 C 708.85 557.16 709.44 560.27 710.76 563.14 C 710.90 569.11 710.01 575.05 709.10 580.94 C 703.39 616.24 684.88 649.28 657.87 672.70 C 631.37 696.05 596.72 709.63 561.46 711.00 L 183.55 711.00 C 182.50 706.40 182.48 701.67 181.95 697.01 C 179.36 665.06 176.69 633.12 175.69 601.08 C 175.18 566.70 174.93 532.28 177.09 497.95 C 180.02 448.89 185.74 399.87 196.49 351.87 C 200.86 333.37 205.55 314.77 213.37 297.38 C 215.74 292.77 217.93 287.41 222.65 284.75 C 229.20 283.05 235.36 287.00 240.80 290.14 C 258.37 301.46 273.26 316.31 288.23 330.76 C 289.99 332.29 291.64 334.40 294.12 334.67 C 297.39 335.21 300.14 333.09 302.92 331.75 C 358.73 303.76 423.01 293.40 484.86 301.31 C 487.78 301.30 490.52 299.39 491.64 296.70 C 499.35 278.81 507.48 260.84 519.21 245.17 M 501.41 391.56 C 496.90 392.66 493.03 395.61 490.24 399.26 C 485.31 405.74 483.22 413.91 482.47 421.90 C 481.68 435.59 485.11 449.73 492.92 461.09 C 497.64 467.75 504.53 473.74 512.98 474.48 C 520.18 474.92 526.80 470.37 530.52 464.45 C 537.31 453.72 538.08 440.29 536.05 428.04 C 533.96 416.73 529.13 405.46 520.50 397.59 C 515.43 392.91 508.34 389.97 501.41 391.56 M 312.56 424.78 C 301.67 427.48 296.01 438.73 294.08 448.92 C 291.21 466.10 295.21 484.91 306.67 498.32 C 311.34 503.49 317.80 508.01 325.06 507.77 C 331.97 507.88 338.05 503.09 341.49 497.39 C 347.59 487.44 348.69 475.22 347.18 463.85 C 345.27 451.41 340.24 438.82 330.54 430.41 C 325.68 426.25 319.04 423.25 312.56 424.78 M 495.78 524.75 C 491.96 527.52 490.80 532.51 491.47 536.99 C 492.33 543.23 490.59 549.70 486.60 554.60 C 481.85 560.85 473.83 564.18 466.05 563.59 C 457.51 563.25 449.47 557.65 446.21 549.75 C 445.06 547.02 444.69 544.04 443.58 541.31 C 441.96 537.89 438.61 535.43 434.96 534.58 C 429.35 533.33 423.36 536.86 421.23 542.09 C 419.66 545.50 420.70 549.33 420.57 552.94 C 420.74 561.59 415.72 570.26 407.79 573.92 C 398.00 578.67 385.23 576.22 378.50 567.48 C 373.65 562.49 374.78 554.27 369.35 549.70 C 363.91 544.84 354.59 546.69 351.12 553.01 C 347.36 558.71 350.51 565.65 352.70 571.32 C 359.85 589.23 378.86 601.35 398.07 600.72 C 414.12 600.51 429.67 591.69 438.11 578.03 C 448.16 585.83 461.34 589.86 474.00 587.84 C 488.59 586.05 502.06 577.09 509.45 564.39 C 515.21 554.77 517.23 543.09 515.48 532.05 C 514.64 527.84 511.57 524.20 507.61 522.61 C 503.61 521.42 498.97 521.88 495.78 524.75 Z" />
</g>
</svg>
