<?xml version="1.0" encoding="UTF-8"?><!DOCTYPE svg><svg width="712pt" height="711pt" version="1.1" viewBox="0 0 712 711" xmlns="http://www.w3.org/2000/svg"><g fill="#fa4c8b"><path d="m152.62 0h405.87c34.05 0.75 67.8 12.72 94.33 34.15 26.49 21.14 45.83 51.13 53.86 84.08 3.42 13.64 4.79 27.74 4.57 41.78v397c-0.03 2.05-0.31 4.08-0.49 6.13-1.32-2.87-1.91-5.98-2.52-9.05-9.96-44.25-24.81-87.29-42.67-128.95-21.37-49.47-46.81-97.24-76.75-142.07-11.13-16.21-22.51-32.43-36.25-46.56-3.39-3.03-6.81-7.04-11.51-7.67-9.46 1.5-16.24 9.18-21.85 16.33-11.73 15.67-19.86 33.64-27.57 51.53-1.12 2.69-3.86 4.6-6.78 4.61-61.85-7.91-126.13 2.45-181.94 30.44-2.78 1.34-5.53 3.46-8.8 2.92-2.48-0.27-4.13-2.38-5.89-3.91-14.97-14.45-29.86-29.3-47.43-40.62-5.44-3.14-11.6-7.09-18.15-5.39-4.72 2.66-6.91 8.02-9.28 12.63-7.82 17.39-12.51 35.99-16.88 54.49-10.75 48-16.47 97.02-19.4 146.08-2.16 34.33-1.91 68.75-1.4 103.13 1 32.04 3.67 63.98 6.26 95.93 0.53 4.66 0.55 9.39 1.6 13.99h-33.21c-21.13-0.94-42.11-5.86-61.21-14.99-12.14-5.57-23.05-13.34-33.71-21.27-4.67-3.77-8.2-8.81-13.09-12.34-7.53-8.85-14.72-18.06-20.58-28.12-11.94-20.15-19.1-43.06-20.94-66.39-0.21-2.99-0.25-6-0.81-8.95v-406.56c0.66-3.77 0.61-7.61 0.98-11.41 1.48-15.6 5.29-30.99 11.38-45.44 12.78-30.65 35.72-56.91 64.31-73.79 22.87-13.71 49.35-20.95 75.95-21.74m5.8 79.7c-3.75 1.9-6.37 6.02-6.18 10.26 0.14 7.03 1.24 13.99 1.65 21.01 0.15 3.65 1.55 7.77-0.71 11.05-1.17 1.97-3.35 2.97-5.53 3.37-10.18 1.93-20.38 3.75-30.55 5.73-3.99 0.96-8.14-2.11-8.96-6.02-2.2-8.16-4.4-16.31-6.54-24.49-0.66-2.69-2.11-5.19-4.32-6.89-4.15-3.44-10.9-2.89-14.5 1.1-3.08 2.81-3.7 7.44-2.57 11.3 8.67 32.32 17.32 64.65 25.99 96.97 1.27 5.14 6.47 9.16 11.83 8.43 6.5-0.41 11.37-7.4 9.57-13.65-3.12-11.97-6.4-23.89-9.57-35.84-1.48-4.18 1.52-9.03 5.82-9.76 8.42-1.56 16.81-3.26 25.25-4.67 4.11-0.8 8.16 2.57 8.56 6.63 1.21 12.6 2.15 25.24 3.38 37.84 0.55 5.34 5.43 10.15 10.97 9.7 6.16 0.36 11.64-5.65 10.83-11.76-2.76-33.68-5.85-67.34-8.76-101.01-0.11-7.52-9.01-12.73-15.66-9.3m50.77 6.54c-4.33 1.65-7.2 6.27-6.93 10.87 0.17 5.92 5.78 10.94 11.7 10.42 6.58-0.24 11.8-7.18 10.04-13.57-1.28-6.37-8.85-10.31-14.81-7.72m3.08 36.15c-3.56 1.43-6.36 4.82-6.71 8.69-0.19 2.28 0.04 4.56 0.25 6.83 1.49 15.71 2.68 31.44 4.21 47.14 0.9 7.74 11.06 12 17.2 7.16 4.45-2.85 5.1-8.5 4.34-13.29-1.49-16.02-2.77-32.06-4.26-48.08-0.86-6.79-8.78-11.16-15.03-8.45m55.09 45.09c-5.73 2.72-7.47 10.88-3.71 15.87 1.82 2.77 5.07 4.14 8.27 4.49 22.06 2.9 42.32 16.71 53.18 36.12 1.38 2.5 2.7 5.26 5.26 6.77 4.16 2.96 10.42 2.16 13.75-1.71 2.93-3.15 3.39-8.12 1.65-11.96-13.97-27.83-42.63-47.84-73.7-50.74-1.63 0-3.26 0.4-4.7 1.16z"/><path d="m501.41 391.56c6.93-1.59 14.02 1.35 19.09 6.03 8.63 7.87 13.46 19.14 15.55 30.45 2.03 12.25 1.26 25.68-5.53 36.41-3.72 5.92-10.34 10.47-17.54 10.03-8.45-0.74-15.34-6.73-20.06-13.39-7.81-11.36-11.24-25.5-10.45-39.19 0.75-7.99 2.84-16.16 7.77-22.64 2.79-3.65 6.66-6.6 11.17-7.7z"/><path d="m312.56 424.78c6.48-1.53 13.12 1.47 17.98 5.63 9.7 8.41 14.73 21 16.64 33.44 1.51 11.37 0.41 23.59-5.69 33.54-3.44 5.7-9.52 10.49-16.43 10.38-7.26 0.24-13.72-4.28-18.39-9.45-11.46-13.41-15.46-32.22-12.59-49.4 1.93-10.19 7.59-21.44 18.48-24.14z"/><path d="m495.78 524.75c3.19-2.87 7.83-3.33 11.83-2.14 3.96 1.59 7.03 5.23 7.87 9.44 1.75 11.04-0.27 22.72-6.03 32.34-7.39 12.7-20.86 21.66-35.45 23.45-12.66 2.02-25.84-2.01-35.89-9.81-8.44 13.66-23.99 22.48-40.04 22.69-19.21 0.63-38.22-11.49-45.37-29.4-2.19-5.67-5.34-12.61-1.58-18.31 3.47-6.32 12.79-8.17 18.23-3.31 5.43 4.57 4.3 12.79 9.15 17.78 6.73 8.74 19.5 11.19 29.29 6.44 7.93-3.66 12.95-12.33 12.78-20.98 0.13-3.61-0.91-7.44 0.66-10.85 2.13-5.23 8.12-8.76 13.73-7.51 3.65 0.85 7 3.31 8.62 6.73 1.11 2.73 1.48 5.71 2.63 8.44 3.26 7.9 11.3 13.5 19.84 13.84 7.78 0.59 15.8-2.74 20.55-8.99 3.99-4.9 5.73-11.37 4.87-17.61-0.67-4.48 0.49-9.47 4.31-12.24z"/><path d="m52.19 674.21c0.6 0.56 0.6 0.56 0 0z"/></g><g fill="#fff"><path d="m158.42 79.7c6.65-3.43 15.55 1.78 15.66 9.3 2.91 33.67 6 67.33 8.76 101.01 0.81 6.11-4.67 12.12-10.83 11.76-5.54 0.45-10.42-4.36-10.97-9.7-1.23-12.6-2.17-25.24-3.38-37.84-0.4-4.06-4.45-7.43-8.56-6.63-8.44 1.41-16.83 3.11-25.25 4.67-4.3 0.73-7.3 5.58-5.82 9.76 3.17 11.95 6.45 23.87 9.57 35.84 1.8 6.25-3.07 13.24-9.57 13.65-5.36 0.73-10.56-3.29-11.83-8.43-8.67-32.32-17.32-64.65-25.99-96.97-1.13-3.86-0.51-8.49 2.57-11.3 3.6-3.99 10.35-4.54 14.5-1.1 2.21 1.7 3.66 4.2 4.32 6.89 2.14 8.18 4.34 16.33 6.54 24.49 0.82 3.91 4.97 6.98 8.96 6.02 10.17-1.98 20.37-3.8 30.55-5.73 2.18-0.4 4.36-1.4 5.53-3.37 2.26-3.28 0.86-7.4 0.71-11.05-0.41-7.02-1.51-13.98-1.65-21.01-0.19-4.24 2.43-8.36 6.18-10.26z"/><path d="m209.19 86.24c5.96-2.59 13.53 1.35 14.81 7.72 1.76 6.39-3.46 13.33-10.04 13.57-5.92 0.52-11.53-4.5-11.7-10.42-0.27-4.6 2.6-9.22 6.93-10.87z"/><path d="m212.27 122.39c6.25-2.71 14.17 1.66 15.03 8.45 1.49 16.02 2.77 32.06 4.26 48.08 0.76 4.79 0.11 10.44-4.34 13.29-6.14 4.84-16.3 0.58-17.2-7.16-1.53-15.7-2.72-31.43-4.21-47.14-0.21-2.27-0.44-4.55-0.25-6.83 0.35-3.87 3.15-7.26 6.71-8.69z"/><path d="m267.36 167.48c1.44-0.76 3.07-1.16 4.7-1.16 31.07 2.9 59.73 22.91 73.7 50.74 1.74 3.84 1.28 8.81-1.65 11.96-3.33 3.87-9.59 4.67-13.75 1.71-2.56-1.51-3.88-4.27-5.26-6.77-10.86-19.41-31.12-33.22-53.18-36.12-3.2-0.35-6.45-1.72-8.27-4.49-3.76-4.99-2.02-13.15 3.71-15.87z"/><path d="m519.21 245.17c5.61-7.15 12.39-14.83 21.85-16.33 4.7 0.63 8.12 4.64 11.51 7.67 13.74 14.13 25.12 30.35 36.25 46.56 29.94 44.83 55.38 92.6 76.75 142.07 17.86 41.66 32.71 84.7 42.67 128.95 0.61 3.07 1.2 6.18 2.52 9.05 0.14 5.97-0.75 11.91-1.66 17.8-5.71 35.3-24.22 68.34-51.23 91.76-26.5 23.35-61.15 36.93-96.41 38.3h-377.91c-1.05-4.6-1.07-9.33-1.6-13.99-2.59-31.95-5.26-63.89-6.26-95.93-0.51-34.38-0.76-68.8 1.4-103.13 2.93-49.06 8.65-98.08 19.4-146.08 4.37-18.5 9.06-37.1 16.88-54.49 2.37-4.61 4.56-9.97 9.28-12.63 6.55-1.7 12.71 2.25 18.15 5.39 17.57 11.32 32.46 26.17 47.43 40.62 1.76 1.53 3.41 3.64 5.89 3.91 3.27 0.54 6.02-1.58 8.8-2.92 55.81-27.99 120.09-38.35 181.94-30.44 2.92-0.01 5.66-1.92 6.78-4.61 7.71-17.89 15.84-35.86 27.57-51.53m-17.8 146.39c-4.51 1.1-8.38 4.05-11.17 7.7-4.93 6.48-7.02 14.65-7.77 22.64-0.79 13.69 2.64 27.83 10.45 39.19 4.72 6.66 11.61 12.65 20.06 13.39 7.2 0.44 13.82-4.11 17.54-10.03 6.79-10.73 7.56-24.16 5.53-36.41-2.09-11.31-6.92-22.58-15.55-30.45-5.07-4.68-12.16-7.62-19.09-6.03m-188.85 33.22c-10.89 2.7-16.55 13.95-18.48 24.14-2.87 17.18 1.13 35.99 12.59 49.4 4.67 5.17 11.13 9.69 18.39 9.45 6.91 0.11 12.99-4.68 16.43-10.38 6.1-9.95 7.2-22.17 5.69-33.54-1.91-12.44-6.94-25.03-16.64-33.44-4.86-4.16-11.5-7.16-17.98-5.63m183.22 99.97c-3.82 2.77-4.98 7.76-4.31 12.24 0.86 6.24-0.88 12.71-4.87 17.61-4.75 6.25-12.77 9.58-20.55 8.99-8.54-0.34-16.58-5.94-19.84-13.84-1.15-2.73-1.52-5.71-2.63-8.44-1.62-3.42-4.97-5.88-8.62-6.73-5.61-1.25-11.6 2.28-13.73 7.51-1.57 3.41-0.53 7.24-0.66 10.85 0.17 8.65-4.85 17.32-12.78 20.98-9.79 4.75-22.56 2.3-29.29-6.44-4.85-4.99-3.72-13.21-9.15-17.78-5.44-4.86-14.76-3.01-18.23 3.31-3.76 5.7-0.61 12.64 1.58 18.31 7.15 17.91 26.16 30.03 45.37 29.4 16.05-0.21 31.6-9.03 40.04-22.69 10.05 7.8 23.23 11.83 35.89 9.81 14.59-1.79 28.06-10.75 35.45-23.45 5.76-9.62 7.78-21.3 6.03-32.34-0.84-4.21-3.91-7.85-7.87-9.44-4-1.19-8.64-0.73-11.83 2.14z"/></g></svg>