<?xml version="1.0" encoding="UTF-8"?><!DOCTYPE svg><svg width="337pt" height="327pt" version="1.1" viewBox="0 0 337 327" xmlns="http://www.w3.org/2000/svg"><path d="m137.5 87c19.48-0.86 39-0.38 58.5-0.38 2.92 0 5.86-0.01 8.78 0.29 10.11 1.21 20.35-0.12 30.44 1.28 5.92 0.48 11.9 0.11 17.8 1.1 8.06 0.39 16.19 0.52 24.14 2.08 6.67 1.3 11.97 6.36 15.34 12.03 3.11 5.27 2.93 11.56 3.64 17.44 0.89 12.71 2.42 25.38 2.51 38.14 1.92 30.57 0.36 61.23-2.15 91.72-0.61 6.26-0.54 12.85-3.42 18.61-3.87 7.53-11.56 13.1-20.1 13.71-14.25 1.01-28.49 2.32-42.78 2.73-12.02 1.17-24.14 0.31-36.16 1.51-16.69 0.12-33.37 0.14-50.05-0.01-11.65-1.19-23.39-0.37-35.03-1.52-13.67-0.36-27.29-1.53-40.93-2.4-5.34-0.46-10.9-1.12-15.55-4-6.87-4.11-10.99-11.92-11.52-19.8-2.07-26.8-3.53-53.65-3.25-80.53 0.81-22.24 1.68-44.49 3.85-66.65 0.77-8.12 6.06-15.55 13.33-19.17 5.54-2.65 11.8-2.54 17.79-2.94 5.53-0.83 11.14-0.55 16.67-1.35 5.5-0.62 11.04-0.15 16.54-0.73 10.49-1.32 21.11-0.14 31.61-1.16m-13.08 52.73c-17.63 4.94-35.13 10.52-52.01 17.67-3.41 1.65-7.37 3-9.6 6.28-3.48 7.19-0.26 18.25 8.34 19.85 5.61 0.55 10.72-2.46 15.89-4.18 13.84-5.41 27.85-10.39 42-14.93 2.89-1.01 6.11-1.91 8.04-4.47 3.24-4.15 3.09-10.28 0.45-14.69-2.4-4.73-8.03-7.11-13.11-5.53m81.99-0.14c-7.85 2.03-11.51 12.78-7.27 19.49 2 3.12 5.68 4.29 9 5.41 11.03 3.35 21.76 7.58 32.63 11.37 6.88 2.35 13.43 5.66 20.49 7.47 3.62 0.98 7.6-0.16 10.18-2.88 3.82-4.27 4.86-10.76 2.92-16.1-0.96-2.72-3.79-3.9-6.16-5.1-14.63-6.84-30.11-11.56-45.42-16.59-5.35-1.4-10.72-3.89-16.37-3.07m-86.87 59.07c-1.12 5.14 0.89 10.3 2.85 14.98 3.21 7.35 8.87 14.41 16.96 16.46 5.71 1.04 11.93 1.16 17.22-1.57 4.81-2.14 8.16-6.35 11.64-10.12 3.79 3.67 7.16 8.06 12.12 10.23 4.99 2.45 10.81 2.44 16.19 1.59 9.48-2.12 15.66-10.85 18.84-19.49 1.21-3.78 3-7.89 1.75-11.88-1.2-3.91-7.27-4.4-9.47-1.24-2.46 5.23-3.47 11.22-7.15 15.84-2.28 2.91-5.68 5.26-9.52 5.1-6.53 0.46-11.27-5.14-14.2-10.3-2.35-3.87-3.71-9.53-8.78-10.62-3.11 0.53-5.11 3.31-6.27 6.04-2.25 5.03-5.05 10.15-9.84 13.19-4.16 2.63-10.03 2.31-13.6-1.18-5.18-4.32-6.46-11.21-8.92-17.12-1.68-4.21-8.13-4-9.82 0.09z" fill="#fefefe"/><g fill="#25aee5"><path d="m99.96 11.67c5.61-2.16 12.7-1.05 16.57 3.81 5.84 7 10.84 14.66 16.04 22.14 3.9 5.54 6.78 11.77 11.14 16.99 16.44-0.07 32.87 0.03 49.3-0.06 4.68-7.51 9.07-15.2 14.3-22.35 4.38-5.9 8.07-12.37 13.18-17.69 6.03-5.84 16.21-4.48 22.1 0.88 5.09 4.34 8.98 12.03 5.72 18.54-4.21 7.97-10.54 14.54-15.22 22.22 14.31 0.51 28.6 1.44 42.87 2.62 14.95 1.3 29.44 8.57 38.8 20.41 8.11 9.7 12.19 22.29 12.81 34.82 3.36 32.88 4.84 65.99 3.43 99.03-0.6 14.46-1.63 28.91-2.88 43.34-0.73 7.18-1.37 14.46-3.88 21.29-6.19 17.41-21.44 31.43-39.46 35.71-12.25 2.69-24.87 2.4-37.3 3.58-17.45 1.46-34.99 1.22-52.47 2.32-17.01 0.1-34.02 0.21-51.03-0.12-10.31-0.68-20.66-0.65-30.99-0.84-18.81-1.7-37.78-1.6-56.52-4.18-18.53-2.63-35.21-15.42-42.61-32.6-4.13-8.98-5.11-18.93-5.51-28.67-3.84-46.22-3.37-92.77 0.99-138.93 0.42-8.5 2.33-17 6.21-24.61 7.54-15.29 22.48-26.54 39.28-29.47 15.95-2.12 32.07-2.7 48.13-3.71-4.29-7.67-10.74-13.9-14.89-21.64-3.77-9.26 2.61-20.11 11.89-22.83m37.54 75.33c-10.5 1.02-21.12-0.16-31.61 1.16-5.5 0.58-11.04 0.11-16.54 0.73-5.53 0.8-11.14 0.52-16.67 1.35-5.99 0.4-12.25 0.29-17.79 2.94-7.27 3.62-12.56 11.05-13.33 19.17-2.17 22.16-3.04 44.41-3.85 66.65-0.28 26.88 1.18 53.73 3.25 80.53 0.53 7.88 4.65 15.69 11.52 19.8 4.65 2.88 10.21 3.54 15.55 4 13.64 0.87 27.26 2.04 40.93 2.4 11.64 1.15 23.38 0.33 35.03 1.52 16.68 0.15 33.36 0.13 50.05 0.01 12.02-1.2 24.14-0.34 36.16-1.51 14.29-0.41 28.53-1.72 42.78-2.73 8.54-0.61 16.23-6.18 20.1-13.71 2.88-5.76 2.81-12.35 3.42-18.61 2.51-30.49 4.07-61.15 2.15-91.72-0.09-12.76-1.62-25.43-2.51-38.14-0.71-5.88-0.53-12.17-3.64-17.44-3.37-5.67-8.67-10.73-15.34-12.03-7.95-1.56-16.08-1.69-24.14-2.08-5.9-0.99-11.88-0.62-17.8-1.1-10.09-1.4-20.33-0.07-30.44-1.28-2.92-0.3-5.86-0.29-8.78-0.29-19.5 0-39.02-0.48-58.5 0.38z"/><path d="m124.42 139.73c5.08-1.58 10.71 0.8 13.11 5.53 2.64 4.41 2.79 10.54-0.45 14.69-1.93 2.56-5.15 3.46-8.04 4.47-14.15 4.54-28.16 9.52-42 14.93-5.17 1.72-10.28 4.73-15.89 4.18-8.6-1.6-11.82-12.66-8.34-19.85 2.23-3.28 6.19-4.63 9.6-6.28 16.88-7.15 34.38-12.73 52.01-17.67z"/><path d="m206.41 139.59c5.65-0.82 11.02 1.67 16.37 3.07 15.31 5.03 30.79 9.75 45.42 16.59 2.37 1.2 5.2 2.38 6.16 5.1 1.94 5.34 0.9 11.83-2.92 16.1-2.58 2.72-6.56 3.86-10.18 2.88-7.06-1.81-13.61-5.12-20.49-7.47-10.87-3.79-21.6-8.02-32.63-11.37-3.32-1.12-7-2.29-9-5.41-4.24-6.71-0.58-17.46 7.27-19.49z"/><path d="m119.54 198.66c1.69-4.09 8.14-4.3 9.82-0.09 2.46 5.91 3.74 12.8 8.92 17.12 3.57 3.49 9.44 3.81 13.6 1.18 4.79-3.04 7.59-8.16 9.84-13.19 1.16-2.73 3.16-5.51 6.27-6.04 5.07 1.09 6.43 6.75 8.78 10.62 2.93 5.16 7.67 10.76 14.2 10.3 3.84 0.16 7.24-2.19 9.52-5.1 3.68-4.62 4.69-10.61 7.15-15.84 2.2-3.16 8.27-2.67 9.47 1.24 1.25 3.99-0.54 8.1-1.75 11.88-3.18 8.64-9.36 17.37-18.84 19.49-5.38 0.85-11.2 0.86-16.19-1.59-4.96-2.17-8.33-6.56-12.12-10.23-3.48 3.77-6.83 7.98-11.64 10.12-5.29 2.73-11.51 2.61-17.22 1.57-8.09-2.05-13.75-9.11-16.96-16.46-1.96-4.68-3.97-9.84-2.85-14.98z"/></g></svg>