<?xml version="1.0" encoding="UTF-8" ?>
<!DOCTYPE svg PUBLIC "-//W3C//DTD SVG 1.1//EN" "http://www.w3.org/Graphics/SVG/1.1/DTD/svg11.dtd">
<svg width="337pt" height="327pt" viewBox="0 0 337 327" version="1.1" xmlns="http://www.w3.org/2000/svg">
<g id="#fefefeff">
<path fill="#fefefe" opacity="1.00" d=" M 137.50 87.00 C 156.98 86.14 176.50 86.62 196.00 86.62 C 198.92 86.62 201.86 86.61 204.78 86.91 C 214.89 88.12 225.13 86.79 235.22 88.19 C 241.14 88.67 247.12 88.30 253.02 89.29 C 261.08 89.68 269.21 89.81 277.16 91.37 C 283.83 92.67 289.13 97.73 292.50 103.40 C 295.61 108.67 295.43 114.96 296.14 120.84 C 297.03 133.55 298.56 146.22 298.65 158.98 C 300.57 189.55 299.01 220.21 296.50 250.70 C 295.89 256.96 295.96 263.55 293.08 269.31 C 289.21 276.84 281.52 282.41 272.98 283.02 C 258.73 284.03 244.49 285.34 230.20 285.75 C 218.18 286.92 206.06 286.06 194.04 287.26 C 177.35 287.38 160.67 287.40 143.99 287.25 C 132.34 286.06 120.60 286.88 108.96 285.73 C 95.29 285.37 81.67 284.20 68.03 283.33 C 62.69 282.87 57.13 282.21 52.48 279.33 C 45.61 275.22 41.49 267.41 40.96 259.53 C 38.89 232.73 37.43 205.88 37.71 179.00 C 38.52 156.76 39.39 134.51 41.56 112.35 C 42.33 104.23 47.62 96.80 54.89 93.18 C 60.43 90.53 66.69 90.64 72.68 90.24 C 78.21 89.41 83.82 89.69 89.35 88.89 C 94.85 88.27 100.39 88.74 105.89 88.16 C 116.38 86.84 127.00 88.02 137.50 87.00 M 124.42 139.73 C 106.79 144.67 89.29 150.25 72.41 157.40 C 69.00 159.05 65.04 160.40 62.81 163.68 C 59.33 170.87 62.55 181.93 71.15 183.53 C 76.76 184.08 81.87 181.07 87.04 179.35 C 100.88 173.94 114.89 168.96 129.04 164.42 C 131.93 163.41 135.15 162.51 137.08 159.95 C 140.32 155.80 140.17 149.67 137.53 145.26 C 135.13 140.53 129.50 138.15 124.42 139.73 M 206.41 139.59 C 198.56 141.62 194.90 152.37 199.14 159.08 C 201.14 162.20 204.82 163.37 208.14 164.49 C 219.17 167.84 229.90 172.07 240.77 175.86 C 247.65 178.21 254.20 181.52 261.26 183.33 C 264.88 184.31 268.86 183.17 271.44 180.45 C 275.26 176.18 276.30 169.69 274.36 164.35 C 273.40 161.63 270.57 160.45 268.20 159.25 C 253.57 152.41 238.09 147.69 222.78 142.66 C 217.43 141.26 212.06 138.77 206.41 139.59 M 119.54 198.66 C 118.42 203.80 120.43 208.96 122.39 213.64 C 125.60 220.99 131.26 228.05 139.35 230.10 C 145.06 231.14 151.28 231.26 156.57 228.53 C 161.38 226.39 164.73 222.18 168.21 218.41 C 172.00 222.08 175.37 226.47 180.33 228.64 C 185.32 231.09 191.14 231.08 196.52 230.23 C 206.00 228.11 212.18 219.38 215.36 210.74 C 216.57 206.96 218.36 202.85 217.11 198.86 C 215.91 194.95 209.84 194.46 207.64 197.62 C 205.18 202.85 204.17 208.84 200.49 213.46 C 198.21 216.37 194.81 218.72 190.97 218.56 C 184.44 219.02 179.70 213.42 176.77 208.26 C 174.42 204.39 173.06 198.73 167.99 197.64 C 164.88 198.17 162.88 200.95 161.72 203.68 C 159.47 208.71 156.67 213.83 151.88 216.87 C 147.72 219.50 141.85 219.18 138.28 215.69 C 133.10 211.37 131.82 204.48 129.36 198.57 C 127.68 194.36 121.23 194.57 119.54 198.66 Z" />
</g>
<g id="#25aee5ff">
<path fill="#25aee5" opacity="1.00" d=" M 99.96 11.67 C 105.57 9.51 112.66 10.62 116.53 15.48 C 122.37 22.48 127.37 30.14 132.57 37.62 C 136.47 43.16 139.35 49.39 143.71 54.61 C 160.15 54.54 176.58 54.64 193.01 54.55 C 197.69 47.04 202.08 39.35 207.31 32.20 C 211.69 26.30 215.38 19.83 220.49 14.51 C 226.52 8.67 236.70 10.03 242.59 15.39 C 247.68 19.73 251.57 27.42 248.31 33.93 C 244.10 41.90 237.77 48.47 233.09 56.15 C 247.40 56.66 261.69 57.59 275.96 58.77 C 290.91 60.07 305.40 67.34 314.76 79.18 C 322.87 88.88 326.95 101.47 327.57 114.00 C 330.93 146.88 332.41 179.99 331.00 213.03 C 330.40 227.49 329.37 241.94 328.12 256.37 C 327.39 263.55 326.75 270.83 324.24 277.66 C 318.05 295.07 302.80 309.09 284.78 313.37 C 272.53 316.06 259.91 315.77 247.48 316.95 C 230.03 318.41 212.49 318.17 195.01 319.27 C 178.00 319.37 160.99 319.48 143.98 319.15 C 133.67 318.47 123.32 318.50 112.99 318.31 C 94.18 316.61 75.21 316.71 56.47 314.13 C 37.94 311.50 21.26 298.71 13.86 281.53 C 9.73 272.55 8.75 262.60 8.35 252.86 C 4.51 206.64 4.98 160.09 9.34 113.93 C 9.76 105.43 11.67 96.93 15.55 89.32 C 23.09 74.03 38.03 62.78 54.83 59.85 C 70.78 57.73 86.90 57.15 102.96 56.14 C 98.67 48.47 92.22 42.24 88.07 34.50 C 84.30 25.24 90.68 14.39 99.96 11.67 M 137.50 87.00 C 127.00 88.02 116.38 86.84 105.89 88.16 C 100.39 88.74 94.85 88.27 89.35 88.89 C 83.82 89.69 78.21 89.41 72.68 90.24 C 66.69 90.64 60.43 90.53 54.89 93.18 C 47.62 96.80 42.33 104.23 41.56 112.35 C 39.39 134.51 38.52 156.76 37.71 179.00 C 37.43 205.88 38.89 232.73 40.96 259.53 C 41.49 267.41 45.61 275.22 52.48 279.33 C 57.13 282.21 62.69 282.87 68.03 283.33 C 81.67 284.20 95.29 285.37 108.96 285.73 C 120.60 286.88 132.34 286.06 143.99 287.25 C 160.67 287.40 177.35 287.38 194.04 287.26 C 206.06 286.06 218.18 286.92 230.20 285.75 C 244.49 285.34 258.73 284.03 272.98 283.02 C 281.52 282.41 289.21 276.84 293.08 269.31 C 295.96 263.55 295.89 256.96 296.50 250.70 C 299.01 220.21 300.57 189.55 298.65 158.98 C 298.56 146.22 297.03 133.55 296.14 120.84 C 295.43 114.96 295.61 108.67 292.50 103.40 C 289.13 97.73 283.83 92.67 277.16 91.37 C 269.21 89.81 261.08 89.68 253.02 89.29 C 247.12 88.30 241.14 88.67 235.22 88.19 C 225.13 86.79 214.89 88.12 204.78 86.91 C 201.86 86.61 198.92 86.62 196.00 86.62 C 176.50 86.62 156.98 86.14 137.50 87.00 Z" />
<path fill="#25aee5" opacity="1.00" d=" M 124.42 139.73 C 129.50 138.15 135.13 140.53 137.53 145.26 C 140.17 149.67 140.32 155.80 137.08 159.95 C 135.15 162.51 131.93 163.41 129.04 164.42 C 114.89 168.96 100.88 173.94 87.04 179.35 C 81.87 181.07 76.76 184.08 71.15 183.53 C 62.55 181.93 59.33 170.87 62.81 163.68 C 65.04 160.40 69.00 159.05 72.41 157.40 C 89.29 150.25 106.79 144.67 124.42 139.73 Z" />
<path fill="#25aee5" opacity="1.00" d=" M 206.41 139.59 C 212.06 138.77 217.43 141.26 222.78 142.66 C 238.09 147.69 253.57 152.41 268.20 159.25 C 270.57 160.45 273.40 161.63 274.36 164.35 C 276.30 169.69 275.26 176.18 271.44 180.45 C 268.86 183.17 264.88 184.31 261.26 183.33 C 254.20 181.52 247.65 178.21 240.77 175.86 C 229.90 172.07 219.17 167.84 208.14 164.49 C 204.82 163.37 201.14 162.20 199.14 159.08 C 194.90 152.37 198.56 141.62 206.41 139.59 Z" />
<path fill="#25aee5" opacity="1.00" d=" M 119.54 198.66 C 121.23 194.57 127.68 194.36 129.36 198.57 C 131.82 204.48 133.10 211.37 138.28 215.69 C 141.85 219.18 147.72 219.50 151.88 216.87 C 156.67 213.83 159.47 208.71 161.72 203.68 C 162.88 200.95 164.88 198.17 167.99 197.64 C 173.06 198.73 174.42 204.39 176.77 208.26 C 179.70 213.42 184.44 219.02 190.97 218.56 C 194.81 218.72 198.21 216.37 200.49 213.46 C 204.17 208.84 205.18 202.85 207.64 197.62 C 209.84 194.46 215.91 194.95 217.11 198.86 C 218.36 202.85 216.57 206.96 215.36 210.74 C 212.18 219.38 206.00 228.11 196.52 230.23 C 191.14 231.08 185.32 231.09 180.33 228.64 C 175.37 226.47 172.00 222.08 168.21 218.41 C 164.73 222.18 161.38 226.39 156.57 228.53 C 151.28 231.26 145.06 231.14 139.35 230.10 C 131.26 228.05 125.60 220.99 122.39 213.64 C 120.43 208.96 118.42 203.80 119.54 198.66 Z" />
</g>
</svg>
