<?xml version="1.0" encoding="UTF-8" ?>
<!DOCTYPE svg PUBLIC "-//W3C//DTD SVG 1.1//EN" "http://www.w3.org/Graphics/SVG/1.1/DTD/svg11.dtd">
<svg width="512pt" height="512pt" viewBox="0 0 512 512" version="1.1" xmlns="http://www.w3.org/2000/svg">
<g id="#ffffffff">
<path fill="#ffffff" opacity="1.00" d=" M 169.96 77.02 C 175.81 73.12 183.36 73.29 189.99 74.65 C 206.49 78.34 220.01 91.32 225.91 106.96 C 230.28 117.75 230.93 129.54 230.76 141.04 C 230.75 199.37 230.74 257.70 230.76 316.03 C 230.68 318.50 231.03 321.05 230.44 323.48 C 229.45 325.73 226.45 325.36 224.71 324.27 C 219.51 321.19 217.70 314.69 217.79 308.98 C 217.78 252.34 217.78 195.70 217.79 139.05 C 217.88 130.96 217.56 122.73 215.07 114.96 C 212.08 104.96 205.44 95.90 196.23 90.81 C 190.59 87.71 183.93 85.69 177.51 87.28 C 177.47 156.88 177.49 226.49 177.50 296.10 C 177.51 308.43 179.80 321.46 187.65 331.36 C 194.96 340.78 206.49 345.84 217.97 347.93 C 226.54 349.58 235.29 349.67 243.98 349.63 C 266.33 349.62 288.67 349.63 311.01 349.63 C 318.42 349.65 325.90 350.23 333.03 352.35 C 348.67 356.73 362.56 367.61 369.85 382.22 C 372.87 388.35 374.83 395.29 373.93 402.17 C 373.33 406.80 370.89 411.40 366.74 413.75 C 363.85 415.54 360.34 415.75 357.03 415.73 C 329.34 415.68 301.64 415.76 273.95 415.68 C 253.08 415.47 233.98 401.86 224.32 383.78 C 229.82 379.31 238.51 382.18 242.56 387.41 C 248.75 394.39 257.02 399.62 266.12 401.79 C 271.32 403.07 276.70 402.74 282.00 402.78 C 307.68 402.75 333.37 402.84 359.05 402.75 C 362.23 402.51 361.10 398.02 360.93 395.89 C 357.74 381.09 345.04 369.71 330.95 365.23 C 320.67 361.81 309.71 362.67 299.06 362.56 C 277.49 362.51 255.92 362.68 234.36 362.48 C 215.65 362.10 195.72 357.52 181.96 344.05 C 169.39 331.96 164.54 313.99 164.56 296.98 C 164.48 227.32 164.55 157.66 164.53 87.99 C 164.30 83.70 166.34 79.39 169.96 77.02 Z" />
</g>
<g id="#336161ff">
<path fill="#336161" opacity="1.00" d=" M 251.60 0.00 L 260.52 0.00 C 299.13 0.84 337.61 10.19 371.98 27.88 C 423.43 54.00 465.53 98.03 489.23 150.64 C 503.81 182.53 511.38 217.48 512.00 252.50 L 512.00 260.49 C 511.13 302.85 499.84 345.01 478.81 381.84 C 460.05 415.00 433.79 443.88 402.57 465.72 C 360.75 495.25 309.85 511.46 258.68 512.00 L 252.41 512.00 C 205.15 511.27 158.12 497.35 118.38 471.71 C 66.39 438.64 27.00 386.24 10.07 326.96 C 3.73 305.33 0.58 282.85 0.00 260.34 L 0.00 253.32 C 0.43 226.06 4.93 198.82 13.86 173.04 C 34.86 111.24 80.62 58.42 138.65 28.59 C 173.41 10.44 212.43 0.83 251.60 0.00 M 169.96 77.02 C 166.34 79.39 164.30 83.70 164.53 87.99 C 164.55 157.66 164.48 227.32 164.56 296.98 C 164.54 313.99 169.39 331.96 181.96 344.05 C 195.72 357.52 215.65 362.10 234.36 362.48 C 255.92 362.68 277.49 362.51 299.06 362.56 C 309.71 362.67 320.67 361.81 330.95 365.23 C 345.04 369.71 357.74 381.09 360.93 395.89 C 361.10 398.02 362.23 402.51 359.05 402.75 C 333.37 402.84 307.68 402.75 282.00 402.78 C 276.70 402.74 271.32 403.07 266.12 401.79 C 257.02 399.62 248.75 394.39 242.56 387.41 C 238.51 382.18 229.82 379.31 224.32 383.78 C 233.98 401.86 253.08 415.47 273.95 415.68 C 301.64 415.76 329.34 415.68 357.03 415.73 C 360.34 415.75 363.85 415.54 366.74 413.75 C 370.89 411.40 373.33 406.80 373.93 402.17 C 374.83 395.29 372.87 388.35 369.85 382.22 C 362.56 367.61 348.67 356.73 333.03 352.35 C 325.90 350.23 318.42 349.65 311.01 349.63 C 288.67 349.63 266.33 349.62 243.98 349.63 C 235.29 349.67 226.54 349.58 217.97 347.93 C 206.49 345.84 194.96 340.78 187.65 331.36 C 179.80 321.46 177.51 308.43 177.50 296.10 C 177.49 226.49 177.47 156.88 177.51 87.28 C 183.93 85.69 190.59 87.71 196.23 90.81 C 205.44 95.90 212.08 104.96 215.07 114.96 C 217.56 122.73 217.88 130.96 217.79 139.05 C 217.78 195.70 217.78 252.34 217.79 308.98 C 217.70 314.69 219.51 321.19 224.71 324.27 C 226.45 325.36 229.45 325.73 230.44 323.48 C 231.03 321.05 230.68 318.50 230.76 316.03 C 230.74 257.70 230.75 199.37 230.76 141.04 C 230.93 129.54 230.28 117.75 225.91 106.96 C 220.01 91.32 206.49 78.34 189.99 74.65 C 183.36 73.29 175.81 73.12 169.96 77.02 Z" />
</g>
</svg>
