<?xml version="1.0" encoding="UTF-8"?><!DOCTYPE svg><svg width="1050pt" height="1050pt" version="1.1" viewBox="0 0 1050 1050" xmlns="http://www.w3.org/2000/svg"><path d="m0 0h1050v1050h-1050v-1050m647.53 235.29c-16.37 1.68-32.57 5.72-47.53 12.63-15.09 6.98-28.89 16.71-40.58 28.53-23.31 23.46-39.69 54.43-42.94 87.58-2.03 16.73-0.18 33.58 2.49 50.11-19.44-0.3-38.78-3.23-57.89-6.72-38.61-7.37-76.14-20.4-111.05-38.46-51.3-26.1-96.62-63.39-133.14-107.8-12.03 21.28-19.46 45.38-19.87 69.91-0.52 24.22 4.84 48.62 15.69 70.3 11.09 22.4 28.59 41.14 48.87 55.53-20.14-0.51-40.11-5.54-58.21-14.37-2.47-1.26-4.91-2.56-7.48-3.58-0.18 19.51 3.22 39.2 10.88 57.2 6.37 15.01 14.78 29.23 25.6 41.47 20.9 23.87 49.86 40.26 80.81 46.91-21.45 5.73-44.15 6.58-65.96 2.41 3.36 10.02 7.61 19.76 12.91 28.91 16.46 28.67 43.12 51.14 73.82 63.25 15.79 6.29 32.71 9.3 49.64 10.24-12.63 9.4-25.7 18.24-39.53 25.79-36.71 20.5-77.99 32.7-119.93 35.63-18.65 1.45-37.4 0.76-56.03-0.73 9.95 7 20.77 12.67 31.47 18.42 35.84 18.73 74.44 32.18 114.16 39.81 41.27 7.96 83.7 9.02 125.47 4.99 37.82-3.93 75.25-12.45 110.64-26.47 57.85-22.53 109.83-59.41 151.04-105.75 42.43-47.81 73.91-105.22 91.72-166.59 12.33-41.59 18.2-85.11 16.83-128.48 0.18-2.86-0.97-6.78 2.12-8.45 27.37-20.12 51.34-44.96 70.15-73.27-26.35 10.15-53.59 18.66-81.79 21.5 3.08-2.18 6.22-4.28 9.25-6.54 24.86-18.25 44.26-44.28 53.36-73.84-13.13 7.23-26.4 14.3-40.39 19.74-16.26 6.51-33.1 11.54-50.22 15.17-3.38 1.04-5.22-2.85-7.44-4.66-16.18-15.2-35.47-27.34-56.62-34.26-19.35-6.47-40.09-8.06-60.32-6.06z" fill="#2d8dc5"/><path d="m647.53 235.29c20.23-2 40.97-0.41 60.32 6.06 21.15 6.92 40.44 19.06 56.62 34.26 2.22 1.81 4.06 5.7 7.44 4.66 17.12-3.63 33.96-8.66 50.22-15.17 13.99-5.44 27.26-12.51 40.39-19.74-9.1 29.56-28.5 55.59-53.36 73.84-3.03 2.26-6.17 4.36-9.25 6.54 28.2-2.84 55.44-11.35 81.79-21.5-18.81 28.31-42.78 53.15-70.15 73.27-3.09 1.67-1.94 5.59-2.12 8.45 1.37 43.37-4.5 86.89-16.83 128.48-17.81 61.37-49.29 118.78-91.72 166.59-41.21 46.34-93.19 83.22-151.04 105.75-35.39 14.02-72.82 22.54-110.64 26.47-41.77 4.03-84.2 2.97-125.47-4.99-39.72-7.63-78.32-21.08-114.16-39.81-10.7-5.75-21.52-11.42-31.47-18.42 18.63 1.49 37.38 2.18 56.03 0.73 41.94-2.93 83.22-15.13 119.93-35.63 13.83-7.55 26.9-16.39 39.53-25.79-16.93-0.94-33.85-3.95-49.64-10.24-30.7-12.11-57.36-34.58-73.82-63.25-5.3-9.15-9.55-18.89-12.91-28.91 21.81 4.17 44.51 3.32 65.96-2.41-30.95-6.65-59.91-23.04-80.81-46.91-10.82-12.24-19.23-26.46-25.6-41.47-7.66-18-11.06-37.69-10.88-57.2 2.57 1.02 5.01 2.32 7.48 3.58 18.1 8.83 38.07 13.86 58.21 14.37-20.28-14.39-37.78-33.13-48.87-55.53-10.85-21.68-16.21-46.08-15.69-70.3 0.41-24.53 7.84-48.63 19.87-69.91 36.52 44.41 81.84 81.7 133.14 107.8 34.91 18.06 72.44 31.09 111.05 38.46 19.11 3.49 38.45 6.42 57.89 6.72-2.67-16.53-4.52-33.38-2.49-50.11 3.25-33.15 19.63-64.12 42.94-87.58 11.69-11.82 25.49-21.55 40.58-28.53 14.96-6.91 31.16-10.95 47.53-12.63z" fill="#fff"/></svg>