<?xml version="1.0" encoding="UTF-8" ?>
<!DOCTYPE svg PUBLIC "-//W3C//DTD SVG 1.1//EN" "http://www.w3.org/Graphics/SVG/1.1/DTD/svg11.dtd">
<svg width="1050pt" height="1050pt" viewBox="0 0 1050 1050" version="1.1" xmlns="http://www.w3.org/2000/svg">
<g id="#2d8dc5ff">
<path fill="#2d8dc5" opacity="1.00" d=" M 0.00 0.00 L 1050.00 0.00 L 1050.00 1050.00 L 0.00 1050.00 L 0.00 0.00 M 647.53 235.29 C 631.16 236.97 614.96 241.01 600.00 247.92 C 584.91 254.90 571.11 264.63 559.42 276.45 C 536.11 299.91 519.73 330.88 516.48 364.03 C 514.45 380.76 516.30 397.61 518.97 414.14 C 499.53 413.84 480.19 410.91 461.08 407.42 C 422.47 400.05 384.94 387.02 350.03 368.96 C 298.73 342.86 253.41 305.57 216.89 261.16 C 204.86 282.44 197.43 306.54 197.02 331.07 C 196.50 355.29 201.86 379.69 212.71 401.37 C 223.80 423.77 241.30 442.51 261.58 456.90 C 241.44 456.39 221.47 451.36 203.37 442.53 C 200.90 441.27 198.46 439.97 195.89 438.95 C 195.71 458.46 199.11 478.15 206.77 496.15 C 213.14 511.16 221.55 525.38 232.37 537.62 C 253.27 561.49 282.23 577.88 313.18 584.53 C 291.73 590.26 269.03 591.11 247.22 586.94 C 250.58 596.96 254.83 606.70 260.13 615.85 C 276.59 644.52 303.25 666.99 333.95 679.10 C 349.74 685.39 366.66 688.40 383.59 689.34 C 370.96 698.74 357.89 707.58 344.06 715.13 C 307.35 735.63 266.07 747.83 224.13 750.76 C 205.48 752.21 186.73 751.52 168.10 750.03 C 178.05 757.03 188.87 762.70 199.57 768.45 C 235.41 787.18 274.01 800.63 313.73 808.26 C 355.00 816.22 397.43 817.28 439.20 813.25 C 477.02 809.32 514.45 800.80 549.84 786.78 C 607.69 764.25 659.67 727.37 700.88 681.03 C 743.31 633.22 774.79 575.81 792.60 514.44 C 804.93 472.85 810.80 429.33 809.43 385.96 C 809.61 383.10 808.46 379.18 811.55 377.51 C 838.92 357.39 862.89 332.55 881.70 304.24 C 855.35 314.39 828.11 322.90 799.91 325.74 C 802.99 323.56 806.13 321.46 809.16 319.20 C 834.02 300.95 853.42 274.92 862.52 245.36 C 849.39 252.59 836.12 259.66 822.13 265.10 C 805.87 271.61 789.03 276.64 771.91 280.27 C 768.53 281.31 766.69 277.42 764.47 275.61 C 748.29 260.41 729.00 248.27 707.85 241.35 C 688.50 234.88 667.76 233.29 647.53 235.29 Z" />
</g>
<g id="#ffffffff">
<path fill="#ffffff" opacity="1.00" d=" M 647.53 235.29 C 667.76 233.29 688.50 234.88 707.85 241.35 C 729.00 248.27 748.29 260.41 764.47 275.61 C 766.69 277.42 768.53 281.31 771.91 280.27 C 789.03 276.64 805.87 271.61 822.13 265.10 C 836.12 259.66 849.39 252.59 862.52 245.36 C 853.42 274.92 834.02 300.95 809.16 319.20 C 806.13 321.46 802.99 323.56 799.91 325.74 C 828.11 322.90 855.35 314.39 881.70 304.24 C 862.89 332.55 838.92 357.39 811.55 377.51 C 808.46 379.18 809.61 383.10 809.43 385.96 C 810.80 429.33 804.93 472.85 792.60 514.44 C 774.79 575.81 743.31 633.22 700.88 681.03 C 659.67 727.37 607.69 764.25 549.84 786.78 C 514.45 800.80 477.02 809.32 439.20 813.25 C 397.43 817.28 355.00 816.22 313.73 808.26 C 274.01 800.63 235.41 787.18 199.57 768.45 C 188.87 762.70 178.05 757.03 168.10 750.03 C 186.73 751.52 205.48 752.21 224.13 750.76 C 266.07 747.83 307.35 735.63 344.06 715.13 C 357.89 707.58 370.96 698.74 383.59 689.34 C 366.66 688.40 349.74 685.39 333.95 679.10 C 303.25 666.99 276.59 644.52 260.13 615.85 C 254.83 606.70 250.58 596.96 247.22 586.94 C 269.03 591.11 291.73 590.26 313.18 584.53 C 282.23 577.88 253.27 561.49 232.37 537.62 C 221.55 525.38 213.14 511.16 206.77 496.15 C 199.11 478.15 195.71 458.46 195.89 438.95 C 198.46 439.97 200.90 441.27 203.37 442.53 C 221.47 451.36 241.44 456.39 261.58 456.90 C 241.30 442.51 223.80 423.77 212.71 401.37 C 201.86 379.69 196.50 355.29 197.02 331.07 C 197.43 306.54 204.86 282.44 216.89 261.16 C 253.41 305.57 298.73 342.86 350.03 368.96 C 384.94 387.02 422.47 400.05 461.08 407.42 C 480.19 410.91 499.53 413.84 518.97 414.14 C 516.30 397.61 514.45 380.76 516.48 364.03 C 519.73 330.88 536.11 299.91 559.42 276.45 C 571.11 264.63 584.91 254.90 600.00 247.92 C 614.96 241.01 631.16 236.97 647.53 235.29 Z" />
</g>
</svg>
