<?xml version="1.0" encoding="UTF-8"?><!DOCTYPE svg><svg width="364pt" height="364pt" version="1.1" viewBox="0 0 364 364" xmlns="http://www.w3.org/2000/svg"><g fill="#fff"><path d="m0 0h364v364h-364v-364m246.39 38.49c-4.11 1.34-7.8 4.05-10.37 7.51-3.41 6.44-1.58 16.63 6.15 18.94 10.51 1.82 21.22-1.24 31.76 0.41 15.45 2.6 29.38 11.41 39.3 23.42 10.16 11.93 16.67 27.41 16.25 43.22 0.16 9.03-3.13 17.91-1.62 26.95 0.66 3.18 2.95 5.78 5.55 7.6 6.64 4.36 17 0.75 19.23-6.94 4.57-14.35 4.4-29.68 2.78-44.5-3.22-15.87-8.87-31.65-19.15-44.38-9.57-11.36-21.8-20.47-35.5-26.24-11.16-4-22.85-7.09-34.79-6.91-6.53 0.14-13.19-0.64-19.59 0.92m-106.04 41.75c-8.13 1.31-16.28 3.05-23.93 6.18-7.22 3.46-13.83 8.05-20.46 12.49-31.52 22.24-57.84 51.74-76.66 85.4-3.77 7.3-8.34 14.33-10.5 22.34-2.78 11.09-2.99 22.83-0.39 33.98 4.09 17.51 15.6 32.4 29.26 43.68 23.13 18.91 51.97 29.87 81.25 34.68 13.59 2.09 27.38 1.38 41.07 1.52 4.13 0.09 8.24-0.29 12.33-0.79 19.24-0.9 38.15-5.34 56.44-11.18 14.27-5.09 28.16-11.5 40.68-20.09 18.49-12.66 33.44-31.03 40.46-52.46 3.62-12.31 3.97-26.61-3.12-37.8-5.71-9.75-15.94-15.72-26.23-19.65-5.12-2-10.93-2.34-15.56-5.49-2.57-1.55-2.06-5.09-1.27-7.51 2.36-5.79 6.74-10.99 6.8-17.53 0.91-13.27-9.52-25.23-21.91-28.68-13.62-3.82-27.95-0.76-41.21 3.08-7.23 2.06-14.44 4.17-21.62 6.36-2.44 0.8-6.12 1.25-7.09-1.87-0.78-5.59 2.91-10.45 3.52-15.86 1.01-8.92 0.22-19.08-6.48-25.77-3.4-3.98-8.64-5.7-13.76-5.75-7.2-0.09-14.47-0.38-21.62 0.72m115.99 6.1c-2.86 0.73-5.86 1.81-7.89 4.07-2.04 2.71-2.18 6.35-1.87 9.61 0.41 3.99 4.19 6.36 7.53 7.85 6.1 2.97 13.27 0.78 19.44 3.56 6.7 2.56 11.58 9.3 11.55 16.52-0.04 6.84-1.59 14.43 2.43 20.52 3.53 6.03 12.94 4.9 17.14 0.2 5.38-5.42 4.72-13.64 4.82-20.66 0.62-16.34-9.89-32.23-24.78-38.73-8.74-4.3-18.93-4.49-28.37-2.94z"/><path d="m144.34 161.25c17.36-1.65 35.14-0.73 51.92 4.24 19.32 5.21 38.2 15.91 48.9 33.33 6.6 10.51 7.79 23.65 5.21 35.59-4.52 17.63-17.84 31.41-32.39 41.55-24.57 16.51-54.56 23.92-83.98 23.44-22.41-0.41-45.25-5.71-64.02-18.36-11.32-7.81-20.99-18.92-24.59-32.43-3.67-14.32 0.26-29.66 8.65-41.6 13.93-19.67 35.74-32.39 58.38-39.54 10.48-2.78 21.05-5.59 31.92-6.22m-10.9 29.44c-16.48 2.24-32.13 11.53-41.05 25.71-6.25 9.67-9.26 21.67-7.02 33.07 2.96 17.03 16.89 30.73 33.03 35.92 23.8 7.51 51.45-1.72 66.51-21.48 8.43-10.55 12.58-24.63 10.15-38.01-1.99-9.92-7.66-19.17-16.03-24.95-13.14-9.22-29.88-11.78-45.59-10.26z"/><path d="m116.38 230.43c9.1-2.64 21.78 0.12 25.03 10.11 2.92 9.99-4.67 19.95-14.05 22.77-7.5 2.64-16.84 0.51-21.63-6.07-3.82-4.72-4.22-11.66-1.42-16.97 2.49-4.72 7-8.25 12.07-9.84z"/></g><path d="m246.39 38.49c6.4-1.56 13.06-0.78 19.59-0.92 11.94-0.18 23.63 2.91 34.79 6.91 13.7 5.77 25.93 14.88 35.5 26.24 10.28 12.73 15.93 28.51 19.15 44.38 1.62 14.82 1.79 30.15-2.78 44.5-2.23 7.69-12.59 11.3-19.23 6.94-2.6-1.82-4.89-4.42-5.55-7.6-1.51-9.04 1.78-17.92 1.62-26.95 0.42-15.81-6.09-31.29-16.25-43.22-9.92-12.01-23.85-20.82-39.3-23.42-10.54-1.65-21.25 1.41-31.76-0.41-7.73-2.31-9.56-12.5-6.15-18.94 2.57-3.46 6.26-6.17 10.37-7.51z" fill="#e77a18"/><path d="m140.35 80.24c7.15-1.1 14.42-0.81 21.62-0.72 5.12 0.05 10.36 1.77 13.76 5.75 6.7 6.69 7.49 16.85 6.48 25.77-0.61 5.41-4.3 10.27-3.52 15.86 0.97 3.12 4.65 2.67 7.09 1.87 7.18-2.19 14.39-4.3 21.62-6.36 13.26-3.84 27.59-6.9 41.21-3.08 12.39 3.45 22.82 15.41 21.91 28.68-0.06 6.54-4.44 11.74-6.8 17.53-0.79 2.42-1.3 5.96 1.27 7.51 4.63 3.15 10.44 3.49 15.56 5.49 10.29 3.93 20.52 9.9 26.23 19.65 7.09 11.19 6.74 25.49 3.12 37.8-7.02 21.43-21.97 39.8-40.46 52.46-12.52 8.59-26.41 15-40.68 20.09-18.29 5.84-37.2 10.28-56.44 11.18-4.09 0.5-8.2 0.88-12.33 0.79-13.69-0.14-27.48 0.57-41.07-1.52-29.28-4.81-58.12-15.77-81.25-34.68-13.66-11.28-25.17-26.17-29.26-43.68-2.6-11.15-2.39-22.89 0.39-33.98 2.16-8.01 6.73-15.04 10.5-22.34 18.82-33.66 45.14-63.16 76.66-85.4 6.63-4.44 13.24-9.03 20.46-12.49 7.65-3.13 15.8-4.87 23.93-6.18m3.99 81.01c-10.87 0.63-21.44 3.44-31.92 6.22-22.64 7.15-44.45 19.87-58.38 39.54-8.39 11.94-12.32 27.28-8.65 41.6 3.6 13.51 13.27 24.62 24.59 32.43 18.77 12.65 41.61 17.95 64.02 18.36 29.42 0.48 59.41-6.93 83.98-23.44 14.55-10.14 27.87-23.92 32.39-41.55 2.58-11.94 1.39-25.08-5.21-35.59-10.7-17.42-29.58-28.12-48.9-33.33-16.78-4.97-34.56-5.89-51.92-4.24z" fill="#d9251b"/><path d="m256.34 86.34c9.44-1.55 19.63-1.36 28.37 2.94 14.89 6.5 25.4 22.39 24.78 38.73-0.1 7.02 0.56 15.24-4.82 20.66-4.2 4.7-13.61 5.83-17.14-0.2-4.02-6.09-2.47-13.68-2.43-20.52 0.03-7.22-4.85-13.96-11.55-16.52-6.17-2.78-13.34-0.59-19.44-3.56-3.34-1.49-7.12-3.86-7.53-7.85-0.31-3.26-0.17-6.9 1.87-9.61 2.03-2.26 5.03-3.34 7.89-4.07z" fill="#e67a19"/><path d="m133.44 190.69c15.71-1.52 32.45 1.04 45.59 10.26 8.37 5.78 14.04 15.03 16.03 24.95 2.43 13.38-1.72 27.46-10.15 38.01-15.06 19.76-42.71 28.99-66.51 21.48-16.14-5.19-30.07-18.89-33.03-35.92-2.24-11.4 0.77-23.4 7.02-33.07 8.92-14.18 24.57-23.47 41.05-25.71m15.9 30.67c-3.28 0.91-6.42 3.93-6.11 7.57-0.03 2.58 1.93 4.69 4.12 5.8 5.18 2.61 12.67-1.67 12.14-7.72-0.2-4.86-6.09-6.78-10.15-5.65m-32.96 9.07c-5.07 1.59-9.58 5.12-12.07 9.84-2.8 5.31-2.4 12.25 1.42 16.97 4.79 6.58 14.13 8.71 21.63 6.07 9.38-2.82 16.97-12.78 14.05-22.77-3.25-9.99-15.93-12.75-25.03-10.11z" fill="#1e1a17"/><path d="m149.34 221.36c4.06-1.13 9.95 0.79 10.15 5.65 0.53 6.05-6.96 10.33-12.14 7.72-2.19-1.11-4.15-3.22-4.12-5.8-0.31-3.64 2.83-6.66 6.11-7.57z" fill="#fefefd"/></svg>