<?xml version="1.0" encoding="UTF-8" ?>
<!DOCTYPE svg PUBLIC "-//W3C//DTD SVG 1.1//EN" "http://www.w3.org/Graphics/SVG/1.1/DTD/svg11.dtd">
<svg width="364pt" height="364pt" viewBox="0 0 364 364" version="1.1" xmlns="http://www.w3.org/2000/svg">
<g id="#ffffffff">
<path fill="#ffffff" opacity="1.00" d=" M 0.00 0.00 L 364.00 0.00 L 364.00 364.00 L 0.00 364.00 L 0.00 0.00 M 246.39 38.49 C 242.28 39.83 238.59 42.54 236.02 46.00 C 232.61 52.44 234.44 62.63 242.17 64.94 C 252.68 66.76 263.39 63.70 273.93 65.35 C 289.38 67.95 303.31 76.76 313.23 88.77 C 323.39 100.70 329.90 116.18 329.48 131.99 C 329.64 141.02 326.35 149.90 327.86 158.94 C 328.52 162.12 330.81 164.72 333.41 166.54 C 340.05 170.90 350.41 167.29 352.64 159.60 C 357.21 145.25 357.04 129.92 355.42 115.10 C 352.20 99.23 346.55 83.45 336.27 70.72 C 326.70 59.36 314.47 50.25 300.77 44.48 C 289.61 40.48 277.92 37.39 265.98 37.57 C 259.45 37.71 252.79 36.93 246.39 38.49 M 140.35 80.24 C 132.22 81.55 124.07 83.29 116.42 86.42 C 109.20 89.88 102.59 94.47 95.96 98.91 C 64.44 121.15 38.12 150.65 19.30 184.31 C 15.53 191.61 10.96 198.64 8.80 206.65 C 6.02 217.74 5.81 229.48 8.41 240.63 C 12.50 258.14 24.01 273.03 37.67 284.31 C 60.80 303.22 89.64 314.18 118.92 318.99 C 132.51 321.08 146.30 320.37 159.99 320.51 C 164.12 320.60 168.23 320.22 172.32 319.72 C 191.56 318.82 210.47 314.38 228.76 308.54 C 243.03 303.45 256.92 297.04 269.44 288.45 C 287.93 275.79 302.88 257.42 309.90 235.99 C 313.52 223.68 313.87 209.38 306.78 198.19 C 301.07 188.44 290.84 182.47 280.55 178.54 C 275.43 176.54 269.62 176.20 264.99 173.05 C 262.42 171.50 262.93 167.96 263.72 165.54 C 266.08 159.75 270.46 154.55 270.52 148.01 C 271.43 134.74 261.00 122.78 248.61 119.33 C 234.99 115.51 220.66 118.57 207.40 122.41 C 200.17 124.47 192.96 126.58 185.78 128.77 C 183.34 129.57 179.66 130.02 178.69 126.90 C 177.91 121.31 181.60 116.45 182.21 111.04 C 183.22 102.12 182.43 91.96 175.73 85.27 C 172.33 81.29 167.09 79.57 161.97 79.52 C 154.77 79.43 147.50 79.14 140.35 80.24 M 256.34 86.34 C 253.48 87.07 250.48 88.15 248.45 90.41 C 246.41 93.12 246.27 96.76 246.58 100.02 C 246.99 104.01 250.77 106.38 254.11 107.87 C 260.21 110.84 267.38 108.65 273.55 111.43 C 280.25 113.99 285.13 120.73 285.10 127.95 C 285.06 134.79 283.51 142.38 287.53 148.47 C 291.06 154.50 300.47 153.37 304.67 148.67 C 310.05 143.25 309.39 135.03 309.49 128.01 C 310.11 111.67 299.60 95.78 284.71 89.28 C 275.97 84.98 265.78 84.79 256.34 86.34 Z" />
<path fill="#ffffff" opacity="1.00" d=" M 144.34 161.25 C 161.70 159.60 179.48 160.52 196.26 165.49 C 215.58 170.70 234.46 181.40 245.16 198.82 C 251.76 209.33 252.95 222.47 250.37 234.41 C 245.85 252.04 232.53 265.82 217.98 275.96 C 193.41 292.47 163.42 299.88 134.00 299.40 C 111.59 298.99 88.75 293.69 69.98 281.04 C 58.66 273.23 48.99 262.12 45.39 248.61 C 41.72 234.29 45.65 218.95 54.04 207.01 C 67.97 187.34 89.78 174.62 112.42 167.47 C 122.90 164.69 133.47 161.88 144.34 161.25 M 133.44 190.69 C 116.96 192.93 101.31 202.22 92.39 216.40 C 86.14 226.07 83.13 238.07 85.37 249.47 C 88.33 266.50 102.26 280.20 118.40 285.39 C 142.20 292.90 169.85 283.67 184.91 263.91 C 193.34 253.36 197.49 239.28 195.06 225.90 C 193.07 215.98 187.40 206.73 179.03 200.95 C 165.89 191.73 149.15 189.17 133.44 190.69 Z" />
<path fill="#ffffff" opacity="1.00" d=" M 116.38 230.43 C 125.48 227.79 138.16 230.55 141.41 240.54 C 144.33 250.53 136.74 260.49 127.36 263.31 C 119.86 265.95 110.52 263.82 105.73 257.24 C 101.91 252.52 101.51 245.58 104.31 240.27 C 106.80 235.55 111.31 232.02 116.38 230.43 Z" />
</g>
<g id="#e77a18ff">
<path fill="#e77a18" opacity="1.00" d=" M 246.39 38.49 C 252.79 36.93 259.45 37.71 265.98 37.57 C 277.92 37.39 289.61 40.48 300.77 44.48 C 314.47 50.25 326.70 59.36 336.27 70.72 C 346.55 83.45 352.20 99.23 355.42 115.10 C 357.04 129.92 357.21 145.25 352.64 159.60 C 350.41 167.29 340.05 170.90 333.41 166.54 C 330.81 164.72 328.52 162.12 327.86 158.94 C 326.35 149.90 329.64 141.02 329.48 131.99 C 329.90 116.18 323.39 100.70 313.23 88.77 C 303.31 76.76 289.38 67.95 273.93 65.35 C 263.39 63.70 252.68 66.76 242.17 64.94 C 234.44 62.63 232.61 52.44 236.02 46.00 C 238.59 42.54 242.28 39.83 246.39 38.49 Z" />
</g>
<g id="#d9251bff">
<path fill="#d9251b" opacity="1.00" d=" M 140.35 80.24 C 147.50 79.14 154.77 79.43 161.97 79.52 C 167.09 79.57 172.33 81.29 175.73 85.27 C 182.43 91.96 183.22 102.12 182.21 111.04 C 181.60 116.45 177.91 121.31 178.69 126.90 C 179.66 130.02 183.34 129.57 185.78 128.77 C 192.96 126.58 200.17 124.47 207.40 122.41 C 220.66 118.57 234.99 115.51 248.61 119.33 C 261.00 122.78 271.43 134.74 270.52 148.01 C 270.46 154.55 266.08 159.75 263.72 165.54 C 262.93 167.96 262.42 171.50 264.99 173.05 C 269.62 176.20 275.43 176.54 280.55 178.54 C 290.84 182.47 301.07 188.44 306.78 198.19 C 313.87 209.38 313.52 223.68 309.90 235.99 C 302.88 257.42 287.93 275.79 269.44 288.45 C 256.92 297.04 243.03 303.45 228.76 308.54 C 210.47 314.38 191.56 318.82 172.32 319.72 C 168.23 320.22 164.12 320.60 159.99 320.51 C 146.30 320.37 132.51 321.08 118.92 318.99 C 89.64 314.18 60.80 303.22 37.67 284.31 C 24.01 273.03 12.50 258.14 8.41 240.63 C 5.81 229.48 6.02 217.74 8.80 206.65 C 10.96 198.64 15.53 191.61 19.30 184.31 C 38.12 150.65 64.44 121.15 95.96 98.91 C 102.59 94.47 109.20 89.88 116.42 86.42 C 124.07 83.29 132.22 81.55 140.35 80.24 M 144.34 161.25 C 133.47 161.88 122.90 164.69 112.42 167.47 C 89.78 174.62 67.97 187.34 54.04 207.01 C 45.65 218.95 41.72 234.29 45.39 248.61 C 48.99 262.12 58.66 273.23 69.98 281.04 C 88.75 293.69 111.59 298.99 134.00 299.40 C 163.42 299.88 193.41 292.47 217.98 275.96 C 232.53 265.82 245.85 252.04 250.37 234.41 C 252.95 222.47 251.76 209.33 245.16 198.82 C 234.46 181.40 215.58 170.70 196.26 165.49 C 179.48 160.52 161.70 159.60 144.34 161.25 Z" />
</g>
<g id="#e67a19ff">
<path fill="#e67a19" opacity="1.00" d=" M 256.34 86.34 C 265.78 84.79 275.97 84.98 284.71 89.28 C 299.60 95.78 310.11 111.67 309.49 128.01 C 309.39 135.03 310.05 143.25 304.67 148.67 C 300.47 153.37 291.06 154.50 287.53 148.47 C 283.51 142.38 285.06 134.79 285.10 127.95 C 285.13 120.73 280.25 113.99 273.55 111.43 C 267.38 108.65 260.21 110.84 254.11 107.87 C 250.77 106.38 246.99 104.01 246.58 100.02 C 246.27 96.76 246.41 93.12 248.45 90.41 C 250.48 88.15 253.48 87.07 256.34 86.34 Z" />
</g>
<g id="#1e1a17ff">
<path fill="#1e1a17" opacity="1.00" d=" M 133.44 190.69 C 149.15 189.17 165.89 191.73 179.03 200.95 C 187.40 206.73 193.07 215.98 195.06 225.90 C 197.49 239.28 193.34 253.36 184.91 263.91 C 169.85 283.67 142.20 292.90 118.40 285.39 C 102.26 280.20 88.33 266.50 85.37 249.47 C 83.13 238.07 86.14 226.07 92.39 216.40 C 101.31 202.22 116.96 192.93 133.44 190.69 M 149.34 221.36 C 146.06 222.27 142.92 225.29 143.23 228.93 C 143.20 231.51 145.16 233.62 147.35 234.73 C 152.53 237.34 160.02 233.06 159.49 227.01 C 159.29 222.15 153.40 220.23 149.34 221.36 M 116.38 230.43 C 111.31 232.02 106.80 235.55 104.31 240.27 C 101.51 245.58 101.91 252.52 105.73 257.24 C 110.52 263.82 119.86 265.95 127.36 263.31 C 136.74 260.49 144.33 250.53 141.41 240.54 C 138.16 230.55 125.48 227.79 116.38 230.43 Z" />
</g>
<g id="#fefefdff">
<path fill="#fefefd" opacity="1.00" d=" M 149.34 221.36 C 153.40 220.23 159.29 222.15 159.49 227.01 C 160.02 233.06 152.53 237.34 147.35 234.73 C 145.16 233.62 143.20 231.51 143.23 228.93 C 142.92 225.29 146.06 222.27 149.34 221.36 Z" />
</g>
</svg>
